<svg width="19" height="19" viewBox="0 0 19 19" fill="none" xmlns="http://www.w3.org/2000/svg">
<path d="M9.60034 0.837158C4.63084 0.837158 0.600342 4.86691 0.600342 9.83716C0.600342 13.8137 3.17884 17.1872 6.75559 18.3774C7.20484 18.4607 7.35034 18.1817 7.35034 17.9447V16.2692C4.84684 16.8137 4.32559 15.2072 4.32559 15.2072C3.91609 14.1669 3.32584 13.8902 3.32584 13.8902C2.50909 13.3314 3.38809 13.3434 3.38809 13.3434C4.29184 13.4064 4.76734 14.2712 4.76734 14.2712C5.56984 15.6467 6.87259 15.2492 7.38634 15.0189C7.46659 14.4377 7.69984 14.0402 7.95784 13.8159C5.95909 13.5872 3.85759 12.8154 3.85759 9.36766C3.85759 8.38441 4.20934 7.58191 4.78459 6.95191C4.69159 6.72466 4.38334 5.80891 4.87234 4.56991C4.87234 4.56991 5.62834 4.32841 7.34809 5.49241C8.06584 5.29291 8.83534 5.19316 9.60034 5.18941C10.3653 5.19316 11.1356 5.29291 11.8548 5.49241C13.5731 4.32841 14.3276 4.56991 14.3276 4.56991C14.8173 5.80966 14.5091 6.72541 14.4161 6.95191C14.9936 7.58191 15.3423 8.38516 15.3423 9.36766C15.3423 12.8244 13.2371 13.5857 11.2331 13.8084C11.5556 14.0874 11.8503 14.6349 11.8503 15.4749V17.9447C11.8503 18.1839 11.9943 18.4652 12.4511 18.3767C16.0248 17.1849 18.6003 13.8122 18.6003 9.83716C18.6003 4.86691 14.5706 0.837158 9.60034 0.837158Z" fill="white"/>
</svg>
